<?xml version="1.0" encoding="UTF-8"?> <svg xmlns="http://www.w3.org/2000/svg" viewBox="0 0 66.84 52.29"><path d="M63.65,3l-5-2.15A3.75,3.75,0,0,0,55,1.6l-.62.56c-.71.74-1.51,1.5-2.41,2.29A24,24,0,0,1,48.5,6.39a5.17,5.17,0,0,0-2.09,1.73,12.41,12.41,0,0,0-.74,1.51c-.09.26-.27,1-.53,2.23a20.25,20.25,0,0,1-1,3.42q-.46,1.37-2,5a7.43,7.43,0,0,0-.74,3.1,1.94,1.94,0,0,0,1.2,1.53,1.66,1.66,0,0,0,1.36.05,2.82,2.82,0,0,0,1.73-1.71q.72-1.72,1-2.37A37.86,37.86,0,0,1,48.5,17.4a8.74,8.74,0,0,1,1-1.4l.53-.49-.29.65q-2.43,5.78-3.22,7.54a4,4,0,0,1-2.08,2.22,3.12,3.12,0,0,1-2.27,0,5.67,5.67,0,0,1-1.25-.86Q40.48,25.58,39,27q-4.55,1.38-4.92,1.52a6,6,0,0,0-1.49.95,2.72,2.72,0,0,0-.82,1.21A1.6,1.6,0,0,0,32,32.06c.35.53,1.2.65,2.57.39L42,31.19q3.73-2.69,7.56-5a2.85,2.85,0,0,0,1.23-1.38c.72-2,1.62-4.1,2.7-6.44.54-1.15,1.07-2.25,1.59-3.31A21.81,21.81,0,0,1,58,11h0q1.59-1.5,8.21-5.2C67.59,5,66.74,4,63.65,3Z" style="fill:#35450a"></path><path d="M38.7,20.21v-.06c-.1-1.89-.4-3-.9-3.31A5.26,5.26,0,0,1,34,15.72c-.44-.94-.91-2-1.42-3.07A4.57,4.57,0,0,0,31.06,11a10.59,10.59,0,0,0-2.34-1.21V9.22Q28.65,0,27.18,0c-.44,0-.71.08-.8.2q-4.34,2.3-6.57,9s0,0,0,0q-1.3.15-3.78,2.36a10.94,10.94,0,0,0-2.28,2.79q-2.3,4-1.33,10.12a13,13,0,0,1-2.67,4.93,19.58,19.58,0,0,0,4,2.89q6.12,3.36,15.65,1A9.42,9.42,0,0,1,30.71,29a5.43,5.43,0,0,1,1.43-1.55Q37.86,26.26,38.7,20.21Zm-7.63-4a2.12,2.12,0,0,1-.48.82,1.76,1.76,0,0,1-1.31.55,1.71,1.71,0,0,1-1.3-.55,1.91,1.91,0,0,1-.55-1.35,1.94,1.94,0,0,1,1.85-1.84,1.76,1.76,0,0,1,1.31.58,1.64,1.64,0,0,1,.48.73,1.91,1.91,0,0,1,0,1.06Z" style="fill:#928161"></path><path d="M14,46.26a.91.91,0,0,0-.74.51l-1,2.06-.48-5.23a3.57,3.57,0,0,1-1-.33,3.35,3.35,0,0,1-.89.24l.68,7.34c.09,1,.61,1.32.93,1.4h0a1.23,1.23,0,0,0,1.37-.69l0-.08L14.18,49l1.71,2.38,0,.06a1.23,1.23,0,0,0,1.48.47c.31-.12.8-.5.71-1.55l-.76-8.23a3.16,3.16,0,0,1-1.06.7,2.7,2.7,0,0,1-.69.18l.51,5.58-1.36-1.9A.94.94,0,0,0,14,46.26Zm5.62-5.36a3.15,3.15,0,0,1-1.13.56l6.75,4.78a2.55,2.55,0,0,0,.68.34,1.17,1.17,0,0,0,1-.18,1.24,1.24,0,0,0,.33-1.52l0-.08L26,42.13l2.82.2a.27.27,0,0,0,.09,0,1.23,1.23,0,0,0,1.29-.83c.09-.32.13-.94-.73-1.55l-6-4.26a3.49,3.49,0,0,1-.67.66,3.31,3.31,0,0,1-.16,1l4.27,3-2.28-.17a.92.92,0,0,0-1,.85,1,1,0,0,0,.08.44l1,2.13-4.57-3.23A3.08,3.08,0,0,1,19.57,40.9ZM22.79,31a1.91,1.91,0,0,0-.73-1.42l-.13-.12.1-.15a1.58,1.58,0,0,0-.65-2.69l-.16-.09a1.56,1.56,0,0,1,.05-.16,1.61,1.61,0,0,0-.56-2.2,1.72,1.72,0,0,0-.83-.22l-.17,0v-.18a1.59,1.59,0,0,0-1.15-1.93,1.53,1.53,0,0,0-.85,0h-.18c0-.06,0-.13-.05-.18a1.92,1.92,0,0,0-.86-1.35,2,2,0,0,0-1.6.09l-.17.06-.09-.15a1.94,1.94,0,0,0-1.2-1.06,1.91,1.91,0,0,0-1.51.53l-.15.11-.13-.12a1.9,1.9,0,0,0-1.46-.67,1.88,1.88,0,0,0-1.3.93l-.11.14-.15-.07a2,2,0,0,0-1.6-.24,1.9,1.9,0,0,0-1,1.26l-.07.18-.19,0a1.91,1.91,0,0,0-1.58.22A1.9,1.9,0,0,0,3.75,23c0,.06,0,.12,0,.18l-.18,0a1.59,1.59,0,0,0-1.74,1.42,1.61,1.61,0,0,0,.14.84c0,.05,0,.11,0,.17l-.17.07a1.58,1.58,0,0,0-.9,2.61l.08.16-.13.11a1.6,1.6,0,0,0-.7,2.14,1.55,1.55,0,0,0,.57.62l.12.13-.1.15a1.59,1.59,0,0,0,.65,2.69l.16.09a.75.75,0,0,1-.05.16,1.91,1.91,0,0,0,0,1.62,1.93,1.93,0,0,0,1.39.8l.17,0v.18a1.91,1.91,0,0,0,.43,1.54,1.94,1.94,0,0,0,1.57.38l.17,0a1.67,1.67,0,0,1,0,.18,1.91,1.91,0,0,0,.86,1.34,1.9,1.9,0,0,0,1.6-.08l.17-.06.09.15a2,2,0,0,0,1.12,1l.09,0a1.91,1.91,0,0,0,1.51-.53l.15-.11.13.12a1.59,1.59,0,0,0,2.21.4,1.64,1.64,0,0,0,.55-.65l.11-.15.15.07a1.6,1.6,0,0,0,2.24-.24,1.48,1.48,0,0,0,.33-.78l.07-.18.19,0a2,2,0,0,0,1.58-.21A1.92,1.92,0,0,0,19,38s0-.12,0-.18l.18,0A1.59,1.59,0,0,0,21,36.35a1.63,1.63,0,0,0-.14-.84s0-.11,0-.17l.17-.07a1.6,1.6,0,0,0,.91-2.61l-.09-.16.14-.11A2,2,0,0,0,22.79,31Zm-2.55,2.56a1.68,1.68,0,0,0-1.29,2,1.6,1.6,0,0,0,.1.31V36h0a1.69,1.69,0,0,0-1.81,1.56,1.71,1.71,0,0,0,0,.32s0,0,0,.06l0,0a1.7,1.7,0,0,0-2.18,1h0c0,.11-.06.21-.08.32v0l-.05,0a2,2,0,0,0-1.4-.28,2,2,0,0,0-1.12.9l0,0,0,0a1.69,1.69,0,0,0-2.36-.34h0l-.24.22,0,0,0,0a2.09,2.09,0,0,0-1-1l-.1,0a2.15,2.15,0,0,0-1.34.19h0l0,0a2,2,0,0,0-.7-1.26A2.05,2.05,0,0,0,5,37.3h0v0a2.07,2.07,0,0,0-.33-1.41,2,2,0,0,0-1.27-.64l-.07,0,0-.06a2.07,2.07,0,0,0,.09-1.43,2.11,2.11,0,0,0-1.06-1l0,0,0,0a1.68,1.68,0,0,0,0-2.38,1.57,1.57,0,0,0-.25-.2l0,0,0,0a1.68,1.68,0,0,0,.67-2.29,2.11,2.11,0,0,0-.18-.27l0,0,0,0a1.69,1.69,0,0,0,1.29-2,2.81,2.81,0,0,0-.1-.31v0h0a1.68,1.68,0,0,0,1.8-1.56,1.61,1.61,0,0,0,0-.31v-.06h0a1.7,1.7,0,0,0,2.19-1h0a1.81,1.81,0,0,0,.09-.31v0l0,0a2.11,2.11,0,0,0,1.41.29,2.06,2.06,0,0,0,1.12-.91l0,0,0,0a2.1,2.1,0,0,0,1.27.68,2.09,2.09,0,0,0,1.33-.55l0,0,0,0a2.07,2.07,0,0,0,1,1,2.08,2.08,0,0,0,1.43-.15l0,0,0,.05a1.69,1.69,0,0,0,1.8,1.56l.31-.05h.05v0a2.05,2.05,0,0,0,.33,1.41,2,2,0,0,0,1.27.64l.07,0,0,.06a2.07,2.07,0,0,0-.09,1.43,2.09,2.09,0,0,0,1.06,1l0,0,0,0a1.68,1.68,0,0,0,0,2.38,1.64,1.64,0,0,0,.25.21l0,0,0,0a1.69,1.69,0,0,0-.67,2.29,1.27,1.27,0,0,0,.18.27l0,0Zm-7.31-8.83h0A5.93,5.93,0,1,0,17.12,32a5.93,5.93,0,0,0-4.19-7.26Zm.51,9.29A4.11,4.11,0,1,1,15,28.43a4.12,4.12,0,0,1-1.51,5.62h0Z" style="fill:#eb651c"></path></svg> 