<?xml version="1.0" encoding="UTF-8"?> <svg xmlns="http://www.w3.org/2000/svg" viewBox="0 0 55.74 60.8"><path d="M45.31,38.48c-.74-2.77-6.94-2.77-6.94-2.77s-2.87-7.25-5-7-3.28,7.4-3.52,8c-1.35,3.59-2,5-1.51,7.54a26.1,26.1,0,0,1,.6,2.76,17.53,17.53,0,0,1-.14,6c-.26,1.35-.58,3-.74,3.81l.92.54A31.45,31.45,0,0,0,41.82,60.8H42a39.28,39.28,0,0,1,.59-4.18c.65-2,2-4.33,3.78-4.8,3-.77,3.89-5.85,3.38-7.72C49.63,43.61,46.21,41.8,45.31,38.48Z" style="fill:#35450a"></path><path d="M55.12,16c-1.58-2.16-10.59-1.7-10.59-1.7s-2.28-4.9-3.76-5.81c-1.72-1.06-6.52-.87-6.52-.87S34.69.56,32.53,0c-4.14-1-9.64,21-11.37,28.46-.78,2-2.55,6.73-4.6,12.65,0,3.91,1.89,9.57,10.41,15h0c.24-2.87,1.11-7.78.15-10.48a7.51,7.51,0,0,1-.45-2.09c-.12-2.31.69-4.18,2.09-7.89.3-.8,1.74-9,4.49-9.06,3.47,0,6.19,7.81,6.19,7.81h.37L40,32.92a9.46,9.46,0,0,1,.23-1.18,2.5,2.5,0,0,1,1.71-2c1.61-.58,9.57-2.21,11.79-4.44C55.4,23.62,56.5,17.92,55.12,16Z" style="fill:#70624f"></path><path d="M13,20.28a1.5,1.5,0,0,1-1.5,1.5h-1v1.5a1.5,1.5,0,0,1-3,0v-1.5h-1a1.5,1.5,0,0,1,0-3h1v-1a1.5,1.5,0,0,1,3,0v1h1A1.5,1.5,0,0,1,13,20.28Zm17.55,6.87L17.64,40.71a1.48,1.48,0,0,1-1.06.44,1.5,1.5,0,0,1-1-.42L2.64,27.16a9.49,9.49,0,0,1,0-13.06,8.69,8.69,0,0,1,12.29-.37,2.77,2.77,0,0,1,.25.24l1.43,1.49,1.31-1.38a8.72,8.72,0,0,1,6.28-2.73,8.83,8.83,0,0,1,6.37,2.74A9.48,9.48,0,0,1,30.56,27.15Zm-2.14-11a5.7,5.7,0,0,0-8.4,0l-2.39,2.51a1.5,1.5,0,0,1-2.1,0l-2.38-2.52a5.65,5.65,0,0,0-3.92-1.84,5.59,5.59,0,0,0-4.07,1.47h0l-.35.36a6.6,6.6,0,0,0,0,9L16.6,37.53,28.42,25.12A6.61,6.61,0,0,0,28.42,16.12Z" style="fill:#eb651c"></path></svg> 