<?xml version="1.0" encoding="UTF-8"?> <svg xmlns="http://www.w3.org/2000/svg" viewBox="0 0 71 41.74"><path d="M34.75,8.78,20.85,24.63v17H32.14V31.58a1.31,1.31,0,0,1,1.27-1.28h4.11a1.31,1.31,0,0,1,1.27,1.28V41.74H50.07V24.63L36.25,8.78a1,1,0,0,0-1.41-.09Z" style="fill:#35450a"></path><path d="M9.64,14.76a.82.82,0,0,0-.67.3l-7,6.87H19.06l6.28-7.17ZM62,15a1.06,1.06,0,0,0-.67-.3H45.74L52,21.86H69.13ZM0,40.69a1,1,0,0,0,1,1H17.64V25.07H0ZM53.36,25.07v16.6H70a1,1,0,0,0,1-1V25.07Z" style="fill:#70624f"></path><path d="M47.47,2.37a7.5,7.5,0,0,0-10.59-.32c-.11.1-.22.21-.32.32L35.5,3.47,34.44,2.36A7.52,7.52,0,0,0,29,0h0a7.5,7.5,0,0,0-5.45,2.36,8.22,8.22,0,0,0,0,11.25l11,11.57a1.3,1.3,0,0,0,.95.4,1.44,1.44,0,0,0,1-.4l11-11.56A8.22,8.22,0,0,0,47.47,2.37Zm-1.94,9.41-10,10.53-10-10.54a5.56,5.56,0,0,1,0-7.57A4.85,4.85,0,0,1,29,2.64,4.91,4.91,0,0,1,32.5,4.2l2,2.14a1.35,1.35,0,0,0,1.94,0l2-2.14a4.75,4.75,0,0,1,6.7-.31c.11.1.21.2.32.32A5.57,5.57,0,0,1,45.53,11.78Z" style="fill:#eb651c"></path></svg> 