<?xml version="1.0" encoding="UTF-8"?> <svg xmlns="http://www.w3.org/2000/svg" viewBox="0 0 62.83 33.66"><path d="M59.92,8.53a.83.83,0,0,0,0-.12l-.13-.13s0-.07-.06-.08a.06.06,0,0,1-.06-.06v0A.16.16,0,0,1,59.7,8c.07,0,.1-.08,0-.13a.72.72,0,0,0-.19-.11c-.1,0-.16-.06-.1-.19s0,0,0-.06l-.13-.23c0-.05,0-.12,0-.17a.25.25,0,0,1,0-.25.74.74,0,0,0-.06-.36A.39.39,0,0,0,59,6.35c-.06,0-.05-.08,0-.11a3,3,0,0,1-.06-.32.32.32,0,0,0-.11-.31l0,0a.09.09,0,0,0-.11-.07.25.25,0,0,1-.27-.21V5.24c0-.07,0-.11-.1-.09S58.1,5.05,58,5s0,0,0,0l-.08-.08,0,0a.33.33,0,0,0-.24-.2l-.21,0s0,0-.07,0-.1,0-.15-.07a2,2,0,0,0-.35,0c-.14-.06-.06-.19-.18-.3s-.15,0-.22-.12-.13,0-.19,0a.33.33,0,0,0-.14,0,.17.17,0,0,1-.18,0l-.1,0-.07,0A.86.86,0,0,0,55.53,4a.5.5,0,0,0-.21,0c-.09,0-.19,0-.27,0H55l-.24-.07h-.06l-.07,0a.2.2,0,0,0-.18.07.16.16,0,0,1-.13.06,1.82,1.82,0,0,0-.33,0c-.12,0-.23.08-.35.1a.11.11,0,0,0-.11.11h0l-.38.23s0,0-.06.06,0,0,0-.06a1.37,1.37,0,0,1-.2.13.71.71,0,0,1-.32.07c-.14,0-.23.08-.35.1s-.12.08-.18.1a2.08,2.08,0,0,0-.34.24l-.09.06c-.08,0-.18,0-.22.11l-.09.25a.16.16,0,0,1-.08.14.14.14,0,0,0-.07.18l0,0L51,6s0,.06,0,.07,0,0,0,.08a.13.13,0,0,1,0,.18.24.24,0,0,0,0,.14h0s.15-.08.14,0-.09,0-.13,0,0,.1-.06.11,0,.06,0,.1a.76.76,0,0,0,.11.14L51,7a.16.16,0,0,0,0,.07l.09,0,.08,0,0,0h0s-.11,0-.12.08.07.15.09.19a.17.17,0,0,0,0,.22.18.18,0,0,1,0,.1.33.33,0,0,0,0,.33v0a.28.28,0,0,0,0,.25,0,0,0,0,1,0,0c0,.06,0,.09,0,.09a.05.05,0,0,1,0,.08l-.05.16,0,.07c0,.06.07.13.15.12a.15.15,0,0,1,.12,0s0,0,0,0a0,0,0,0,1,0,0l-.13,0a.69.69,0,0,1,.05.13.07.07,0,0,1,0,.05c0,.1,0,.19.06.28l0,0a.2.2,0,0,0,0,.22.18.18,0,0,1,.05.07s.08.05,0,.12a.17.17,0,0,0,0,.1.87.87,0,0,0,.1.24.41.41,0,0,0,.14.12s.06,0,.11,0l.31.29h0c.06,0,.12,0,.17,0s.19.06.3,0,.23.09.32.16a.55.55,0,0,0,.22.1l.16,0a.76.76,0,0,0,.18.09c.13,0,.18.12.27.18l.13.12s.08,0,.11,0,0,.07.08.1a1.37,1.37,0,0,1,.17.17.19.19,0,0,0,.26.12h.06a.07.07,0,0,1,0,.05s0,.1,0,.13l.12.06a.52.52,0,0,0,.11.1l.23.12h.28s0,0,0,0h.1l0,0,.33-.05a2.61,2.61,0,0,0,.27-.06v0s0-.06,0-.09.07,0,.1,0h0a1.61,1.61,0,0,0,.29-.09l.26-.14a.8.8,0,0,1,.16-.08.16.16,0,0,0,0-.16c-.06.07-.1,0-.14,0l0,0s0,0,0,0,0,.07,0,.07a1.52,1.52,0,0,1-.2-.06l.28-.19s.06,0,.1,0,.1.09.13.08.07,0,.08.05h.2a.25.25,0,0,0,0-.07l-.09-.06v0h.17s0-.06,0-.1a.19.19,0,0,1,0-.1s0,0,.07,0,.06.07.08.06a.51.51,0,0,0,.16-.09.27.27,0,0,0,.11-.18l0,0c.07.05.13,0,.15-.06s0-.07.11,0,.06-.15.1-.21a.24.24,0,0,1,.11-.09s.08,0,.12,0,0-.05,0-.08l-.07-.07.09-.06.08.13a.39.39,0,0,0,.1-.08s0,0,0-.09h0l.12,0s.06-.09,0-.13a0,0,0,0,1,0-.07l0,0,.12.11a.24.24,0,0,0,.06-.08,1.83,1.83,0,0,1,.18-.34c0-.08.19-.11.11-.24h0s0,0,.06,0a.29.29,0,0,0,.2-.2,1.55,1.55,0,0,1,.08-.23c0-.06,0-.11,0-.16a.06.06,0,0,1,0-.07s0,0,0,0,.07,0,.1-.05,0-.07.1-.07,0-.06,0-.08,0-.09,0-.14S59.92,8.55,59.92,8.53Zm-8.7.25-.06-.06s0-.05.06-.05,0,0,.05.06Zm.15-2.1c-.09.07,0,0-.08,0s0-.12,0-.17.14,0,.1.11,0,.06,0,.09Zm.09-1.3h.08l.09,0s0,.12-.12.1a.12.12,0,0,1-.07,0,.16.16,0,0,1,0-.09Zm.2,4.38s-.07,0-.08,0-.18-.13-.13-.27l.13,0,0,.07a.37.37,0,0,0,0,.11c.07.06.07.1,0,.17Zm.24.37c-.08,0-.1,0-.16,0a.12.12,0,0,1,.17,0,0,0,0,0,1,0,.05Zm0-.26,0,0,.06,0,.06,0v0l-.09,0Zm1-4.85a.06.06,0,0,1,0-.07s.08,0,.12,0,0,.1-.11,0Zm.24,5.68h0a.24.24,0,0,1,0-.08h.07s0,.05,0,.08Zm.12-.14-.13,0h0l-.11,0s-.05,0-.07-.05l.09-.08s.06,0,.09,0,.16,0,.16.09,0,0,0,.05Zm.22-6.05h-.1v0s0,0,.06,0,.05,0,.07,0Zm.24,6.62h0s0-.05,0-.07l.12,0v0l.08,0-.15.09Zm.45-6.9.18.07c0,.08-.07.08-.12,0a.1.1,0,0,0-.05,0l0,0Zm-.09,6.94s0,0,0-.05,0,0,0,0l.08,0a.27.27,0,0,1,0,.08h-.15Zm.24.28c0,.06-.08.05-.13,0s0-.17.09-.18.07.09,0,.14Zm.05.19c0-.05,0-.09,0-.13h0s0,.08.05.13Zm0-.36-.08-.09s-.05-.06,0-.1,0,0,0,0h.18c0,.11.06.15.1.21s-.1.12-.2,0Zm.18-6.86a1.3,1.3,0,0,1,0-.15l.06,0a.34.34,0,0,1,0,.1Zm.26,7.43h-.11l0-.06-.09,0c.18,0,.19,0,.17.09Zm.55-7.36s0,0,0,0,0,0,0,0a.52.52,0,0,1,.15-.07l-.17,0c-.06.07-.08,0-.1,0a1.72,1.72,0,0,1,.07-.21h0a.77.77,0,0,1,0,.15h0a.09.09,0,0,1,.1-.09h0s0,.11,0,.19-.06.11-.11.15Zm.83.33-.07,0a.41.41,0,0,1,0-.09,1,1,0,0,0,0,.1Zm0-.35-.07,0,0-.09c.1,0,.11.06,0,.13Zm.19.28s-.07,0,0-.12l.13,0s0,.07-.07.07Zm.22,0a.29.29,0,0,1-.12-.1s.05-.07.08-.08.13.07.13.14-.06.06-.09,0Zm.42,0-.08.13a.07.07,0,0,1,0-.09v0L57,4.63l.08,0s0,.05,0,.08Zm.45.21c.09-.1.09-.12,0-.26l.11,0s0,.06,0,.09l0,.24,0,0L57.47,5Zm.29,6.21a.06.06,0,0,1-.06,0l-.13,0s.06-.08.1-.09.06,0,.09,0a.07.07,0,0,1,0,.06Zm.12-5.68h0l-.06-.14s0-.08,0-.12.05-.1.09-.08a.51.51,0,0,0,.27,0,.09.09,0,0,1,.05,0l-.05,0-.16,0a.73.73,0,0,1-.09.22ZM58,10.92c-.17-.07-.17-.16,0-.3a1.42,1.42,0,0,1,.07.22s0,.06-.07.08Zm.07-5.15s-.06,0-.1,0l-.08,0a.27.27,0,0,0,0-.07c.07,0,.1,0,.15,0h.05a1.36,1.36,0,0,1,0,.17h-.1Zm.12-.3c-.06,0-.06-.06,0-.13l.1.1Zm.17.4,0,0c-.05,0-.1,0-.08-.06s0,0,.07-.06.1,0,.09.06,0,.06-.05.09Zm.33.68-.06,0a.22.22,0,0,1-.05-.08v0l.1,0a.07.07,0,0,1,0,.06Zm.72,1.56a.26.26,0,0,1-.09.09s-.08,0-.08-.06,0-.09,0-.1l.18,0a.42.42,0,0,1,0,.1Zm.12.68,0-.16h0l.11.1Zm.2-.13s0-.06-.05-.11h.14s0,.13-.09.11ZM54.48,2.24c0,.12.08.24.23.26v.08l.12,0v0l-.08.05a.83.83,0,0,0,.2.3s0,.12.09.17a.31.31,0,0,0,.16.12,1.38,1.38,0,0,1,.29.08.59.59,0,0,0,.23,0,.28.28,0,0,0,.22,0,.48.48,0,0,1,.2,0,.13.13,0,0,0,.13-.13.25.25,0,0,0,0-.07.3.3,0,0,1,0-.1h0a1.47,1.47,0,0,0,.1.13h0l0-.09.06,0s0,0,.14-.19a.08.08,0,0,1,0,0l.07,0c0-.09.07-.07.13-.08s0-.11.08-.1a.88.88,0,0,1,0-.15c0-.05,0-.1,0-.14a.06.06,0,0,1,0-.06c.08,0,0-.12,0-.15A3,3,0,0,1,57,1.79.28.28,0,0,0,57,1.56,1.36,1.36,0,0,0,57,1.31c0-.09-.08-.18,0-.28a.24.24,0,0,0,0-.12A1.72,1.72,0,0,1,56.89.7a.25.25,0,0,0-.15-.2s-.05.09-.06.09l-.22-.1s0,0,0,0,0-.08,0-.1l.08-.08a.15.15,0,0,0-.2,0h0c-.1,0-.2-.06-.3-.09A.83.83,0,0,1,55.87,0h-.13l0,0c-.08,0-.1.05-.09.12v.1l0,0c0,.07,0,.07,0,.08l0,0s-.05.07-.08.07-.06,0-.1-.06l-.05,0c0,.06.06.1.05.14a.35.35,0,0,1-.08.1L55.19.5c-.11-.08-.11-.08-.18,0L55,.6c0,.1-.07.21-.2.23l0,0-.19.27s0,0,0,0l0,.34v0l0,.1c0,.1,0,.2-.06.32l.11.07a.16.16,0,0,0-.11.2Zm.3-.68.06.1s0,0-.05,0a.36.36,0,0,1,0-.09Zm0,.43s.1,0,.1-.1,0,0,0,0,.15.07,0,.22-.28,0-.17-.08Zm8.07,3.87V5.73c-.1,0-.13,0-.13-.13s0-.06,0-.08a.69.69,0,0,0-.11-.13s-.08,0-.1,0a.12.12,0,0,0-.15,0l-.1,0s0,0,0,0,0,0,0,0,0,0,0,0l-.07,0L62,5.09h0a.3.3,0,0,0-.38,0h0a.16.16,0,0,0-.17.12.23.23,0,0,1-.31.12s0,0-.06,0l.07-.06.12,0a.54.54,0,0,0,0-.1s-.1-.08-.13-.07a.11.11,0,0,1-.12,0,.11.11,0,0,0-.13,0,1.85,1.85,0,0,1-.14.14,0,0,0,0,0,0,0s0,.1,0,.11h-.12v0l.06-.07s-.06,0-.08,0,0,0-.05.06l-.06.1a.28.28,0,0,0-.09.2.16.16,0,0,1-.06.08,1.77,1.77,0,0,0-.17.12.42.42,0,0,0-.13.33c0,.08,0,.14-.06.2a.13.13,0,0,0,0,.2h0a.12.12,0,0,1,0,.15h0a.1.1,0,0,0,0,.14h0s.05,0,.05,0,.1.07.16.08a.2.2,0,0,0,.1.25c.11.08.27,0,.34.17a1,1,0,0,0,.3,0,.22.22,0,0,1,.19.06l.05,0c.06,0,.09,0,.14,0a.23.23,0,0,0,.14,0s0-.06,0-.09,0,0,0-.06a.29.29,0,0,0,.21-.24.17.17,0,0,1,.13-.11l0,0s0,0,0,0-.08.13-.12.18,0,.07,0,.08l.09,0,.06,0c.1,0,.13,0,.14-.15h0a.23.23,0,0,0,.32-.05c.07-.07.2-.1.19-.23s0,0,0,0a.34.34,0,0,0,.16-.21s0,0,0,0a.28.28,0,0,0,.06-.18,1.59,1.59,0,0,1,.06-.3h0V6.13l0,0L62.73,6l0,0v0C62.76,6,62.77,5.86,62.83,5.86Zm-2.59.23c.09.06.07.14,0,.21s0,0,0-.21Zm0,.93-.08,0s0,0,0,0l.08,0,.06,0s0,0-.07,0Zm.58-1.3-.07,0a.11.11,0,0,1,0,0l.07,0A.08.08,0,0,1,60.84,5.72Zm.32,1.51-.07.08a.83.83,0,0,1,0-.15.13.13,0,0,1,.06-.07.08.08,0,0,1,.09,0v0S61.19,7.2,61.16,7.23Zm.14-.16s-.07,0-.06-.05,0,0,.06-.09l.07.09s0,.05-.07.05Zm.64.1c0-.09-.14-.1-.12-.21v0c.13,0,.16.11.11.23Zm.24-1.42s0,0,0,0a.19.19,0,0,1,0-.1l.07.09a.1.1,0,0,1-.05,0Zm.19,0s0-.11.06-.11.07,0,.07.08,0,.07-.08.08l-.05,0Zm.26.65c-.1,0-.16,0-.22-.1a.1.1,0,0,1,.13-.08h0c.07,0,.09.09.07.19Zm-11.72-4c0,.11.05.22.07.33a.28.28,0,0,1,0,.09A.31.31,0,0,1,51,3a.15.15,0,0,0,0,.09s.1.07.11.12a1.49,1.49,0,0,0,.3.41s0,.06,0,.08.07.1.11.15l.05-.07.16.18.14.15a.37.37,0,0,0,.21,0A3,3,0,0,1,52.54,4c.08,0,.1,0,.09-.12s.13,0,.16-.05-.1-.08,0-.09,0,0,0,0l.19,0c0-.11.08-.08.1-.11s-.06-.08-.06-.1a.19.19,0,0,1,0-.1V3.31l.09.06.06-.2v0a.14.14,0,0,1,0-.17l0-.11a.45.45,0,0,1,0-.16c0-.12,0-.19-.12-.22l.05-.07a.08.08,0,0,0,0,0c0-.06,0-.18-.15-.14a.67.67,0,0,1-.42,0,.14.14,0,0,1,0-.08c0-.06,0-.12,0-.19s0,0,0,0a0,0,0,0,1,0,0c.05,0,.23,0,.13.12s.29.07.25-.09l-.09-.16-.18.05s0-.05-.07-.07l.06,0L53,1.65a1.51,1.51,0,0,1-.12-.2s-.09,0-.1,0,0-.06,0-.1,0,0,0,0l-.31-.14,0,0-.05,0s0,0,0,0,0-.06-.07-.08,0,0,0,0a.2.2,0,0,0-.26,0,.36.36,0,0,1-.3.12.13.13,0,0,0-.13.1.16.16,0,0,1-.12.11.48.48,0,0,0-.3.42l0,0A.34.34,0,0,0,51,2c0,.1-.06.12-.12.16V2.3Zm1.71-.62,0,0,0,0s0,0,.06,0Zm0-.19s0,0,0,.06h-.12c0-.06.06-.1.1-.05Zm-.31.53h0a0,0,0,0,1,0,0,.53.53,0,0,1,0,.12c-.09-.05,0-.1,0-.14Zm-1,1.28,0,0-.08.11-.07-.07.11-.07ZM58,4a.16.16,0,0,1,.11.14.13.13,0,0,0,.12.1c.08,0,.1.06,0,.12a.09.09,0,0,0,0,.13.07.07,0,0,0,.06,0l.28.08.2,0,.21,0c0,.12,0,.14.15.15l.1,0a.11.11,0,0,0,.13,0s0-.08.09-.1.05,0,0-.08,0-.07,0-.07.05,0,.06-.07a.3.3,0,0,1,0-.09.19.19,0,0,1,.1,0,.11.11,0,0,0,.17,0h0l.09-.1V4.13l.13-.07-.06,0a.2.2,0,0,1,0-.08s0,0,0,0,0,0,0,0l0,0a.05.05,0,0,0,0,0V3.81s.07,0,.08.06a.09.09,0,0,0,.1,0h.07c.1,0,.16,0,.17-.12a1.69,1.69,0,0,1,0-.24s0-.07,0-.1,0-.1.07-.13a.11.11,0,0,0,.08-.13,0,0,0,0,1,0,0,.19.19,0,0,1,0-.08,1,1,0,0,0,0-.41,0,0,0,0,1,0,0c.07-.14,0-.27,0-.4a1.21,1.21,0,0,0-.11-.32c0-.1-.09-.2-.13-.29l0,0c-.11,0-.18-.17-.31-.2h0a.19.19,0,0,0-.23,0h-.06c-.11,0-.21-.08-.29,0s0,0,0,0l-.17.11H59a.16.16,0,0,0-.14.12l.1.08-.15.12-.26.17a.3.3,0,0,0-.1.19.12.12,0,0,1,0,.11.2.2,0,0,0-.11.2h0a.07.07,0,0,0-.09,0v0c0,.06,0,.12,0,.18l.09,0s-.06.08-.1.1a.11.11,0,0,0-.06.12.1.1,0,0,1,0,.13q-.09.06,0,.12s.06.06,0,.11l-.1.15a.14.14,0,0,0,0,.06.28.28,0,0,1,0,.28S58,4,58,4Zm2.41-.63c.06.09,0,.12,0,.14a1.09,1.09,0,0,0,0-.14Zm-.33-1.73s-.05.06-.07.06-.06,0,0-.09,0,0,0-.06.07.08.14.08ZM59.74,4s.07,0,.08,0,0,.1,0,.11-.05-.07-.1-.07V4Zm-.28.29s0,.08,0,.12h-.11v0l.1-.08Zm-.18-.2a.14.14,0,0,1,0,.06h0l0-.09.1,0Zm-.09.21.13-.09c0,.06.06.11,0,.13h0l-.08,0,0-.1Zm-.56-2.17,0,0s.09.05,0,.1a.43.43,0,0,1-.11.12c0-.07-.06-.14,0-.19Zm-.08,2s0-.09.06-.09a.07.07,0,0,1,.06.07,2.89,2.89,0,0,0,0,.31h.06s0,0-.06,0-.08,0-.1-.05a1,1,0,0,1,0-.24Zm-.13-1.61h0s0,.07,0,.1h-.06s0-.07,0-.11Zm-.3.84h0a.29.29,0,0,1,0,.09.06.06,0,0,1-.05,0,.07.07,0,0,1,0,0,.93.93,0,0,1,0-.1ZM16.31,23.66a3.47,3.47,0,0,1-.69,1.09c-.21.23-.48-.8-.55-1.06a5.51,5.51,0,0,1,.41-3.42c.27-.67-.48-1-1-.8l-.2-.21c-1.12-1-2.6.3-3.13,1.3a6.22,6.22,0,0,0-.74,2.34l0,0c-.53.68-2.56,2.75-3.51,1.95a3.74,3.74,0,0,1-.8-2.59,30.56,30.56,0,0,0,3.06-3.94A11.49,11.49,0,0,0,11,11.4C11,10,10.51,8.18,8.91,8s-2.62,2.65-3,3.8a28.42,28.42,0,0,0-1.26,9.83,38.08,38.08,0,0,1-4.41,4c-.74.58.3,1.61,1,1a41.76,41.76,0,0,0,3.54-3.1c.19,1.15.6,2.34,1.65,2.72,1.49.55,3.19-.5,4.31-1.63a.56.56,0,0,0,.05.08.61.61,0,0,0,.12.16,1.77,1.77,0,0,0,2.48.3,1.71,1.71,0,0,0,.42-.47,5,5,0,0,0,.43.83,1.45,1.45,0,0,0,2,.54h0a3.84,3.84,0,0,0,1.44-2C18.09,23.18,16.67,22.8,16.31,23.66ZM6.1,20a28.44,28.44,0,0,1,1.37-8.23c.26-.81,1.26-3.41,1.89-1.5C10.51,13.76,8.28,17.36,6.1,20Zm7.26,2.36a4.83,4.83,0,0,1-.46,1.27c-.25.47-.47.64-.85.29-.61-1,.23-2.94,1.14-3.46.24-.14.24.13.28.42A4.33,4.33,0,0,1,13.36,22.33ZM49.08,12a5,5,0,0,0-.55,0,7,7,0,0,1-6.17,3.75h0a7.91,7.91,0,0,0-1.14,4.07V31.37h0a2.29,2.29,0,1,0,4.57,0V25.31h6.54v6.06h0a2.29,2.29,0,1,0,4.57,0V19.89A7.85,7.85,0,0,0,49.08,12Zm3.27,9.85H45.81V19.6c0-1.37,1.46-2.48,3.27-2.48s3.27,1.11,3.27,2.48ZM48.48,8.25a6.39,6.39,0,0,0-6.11-6.63H34A2.36,2.36,0,0,0,31.67,4h0V17.77a6.33,6.33,0,0,1,4.25,4.05,1.17,1.17,0,0,1,0,.11V14.87h6.4A6.39,6.39,0,0,0,48.48,8.25ZM36,10.53V5.72h5.88A2.42,2.42,0,0,1,44,8.35a2.4,2.4,0,0,1-2.19,2.18Zm-5.81,8-5.94-.27A2.1,2.1,0,0,1,22.33,16a2,2,0,0,1,1.84-2.09h6.55V9.16H24.24c-2.92,0-6.23,2.77-6.23,7,0,3.43,2.9,6.22,4.56,6.35s6.94.4,7.05.4a1.93,1.93,0,0,1,1.9,2,.13.13,0,0,1,0,.06,2.07,2.07,0,0,1-2,2H20.37a2.37,2.37,0,1,0,0,4.73h9.25c2.63,0,5.95-3.08,5.95-6.89C35.57,21.19,33,18.63,30.16,18.49Z" style="fill:#eb651c"></path></svg> 