<?xml version="1.0" encoding="UTF-8"?> <svg xmlns="http://www.w3.org/2000/svg" viewBox="0 0 81.55 62.25"><path d="M28.9,24.88c-1.72-.56-9.09-3-12.74-4.19C14.3,25.47,4.51,51.34,7.88,55.79c3.72,4.91,17.09-.85,21,0s3.41-1.86,3.41-1.86Zm9.8-14.53c-1-1.4-6.83-1.1-6.83-1.1S30.4,6.09,29.45,5.5c-1.11-.68-4.21-.56-4.21-.56S25.53.36,24.13,0c-2.66-.65-6.21,13.57-7.32,18.35,3,1.22,8.62,3.39,11.79,3.92l0-.27s.11-2.31,1.65-2.86c1-.37,6.17-1.43,7.6-2.87C38.88,15.23,39.59,11.56,38.7,10.35ZM7.54,54.18C2,49.92,1.94,40.1.53,43.07-.8,45.84.5,52.53,3,55.47c2.27,2.7,7,2.57,7.15.88" style="fill:#70624f"></path><path d="M50,33.19a37,37,0,0,0,8.8-3.84,15.84,15.84,0,0,1,.59-4.28c.33-1.65-.11-2.6-1-5-.16-.42-.87-5.14-2.31-5.28s-3.3,4.62-3.3,4.62-4.07,0-4.56,1.82c-.59,2.18-2.84,3.37-2.93,3.69-.34,1.23.26,4.57,2.22,5.08C48.71,30.34,49.58,31.9,50,33.19Zm9.8-1.5a2.6,2.6,0,0,1-.47-.58,58.27,58.27,0,0,1-9,4.1c1.08,5.08.47,17.92.5,18.47,0,.81-.49,1.32-.09,2,.6,1,1.78,1.09,3.17.83s11.79,2.63,18.29-.1C80.21,51.58,66.89,34.46,59.81,31.69ZM74.64,50.92c2.18,1.37,6.14-4.47,2.86-6.45-2.06-1.24-2.3-1.62-2.87-2.58-1.4-2.31.43-8.76,4-9.59,2.63-.62,2.8,1.8,1.36,2.59-3.43,2-3.72,5.47-1.39,7.13a5.86,5.86,0,0,1,2.83,3.73c.81,3-1.63,7.69-6.31,9.17,0,0-2.61.59-3.09-.48" style="fill:#35450a"></path><path d="M41.3,46.18l2.05-.81c-1.27-5.36-4-9.37-7.91-11.75C35.44,37.54,37.44,41.81,41.3,46.18Zm3.05-12.56a11,11,0,0,0,0,10.31A11.18,11.18,0,0,0,44.35,33.62ZM41.91,45.14l-3.84,3.12c-2.92-1.79-4.85-2.78-7.91-2.78-6.42,0-9.33,4.39-9.33,9.27A8.69,8.69,0,0,0,22,58.82a3,3,0,0,0-5.36,2,5.15,5.15,0,0,0,.21,1.46l19.36,0c0-2.25-1.82-2.16-6.74-2.16,1.95-1,3.56-3.67,3.84-7.3a11.35,11.35,0,0,1,.13,5.34,10.49,10.49,0,0,1,6.89,4,.53.53,0,0,0,.36.17h2c1.09,0,1-.13.53-1.09l-2.12-4,3-5.45c2,0,4.31-.25,4.31-1.82C48.36,47.3,44.65,44.25,41.91,45.14Z" style="fill:#eb651c"></path></svg> 